<svg width="467" height="286" viewBox="0 0 467 286" fill="none" xmlns="http://www.w3.org/2000/svg">
<path fill-rule="evenodd" clip-rule="evenodd" d="M173.642 213.628C166.723 189.981 144.77 172.808 118.915 173.041C93.0607 173.275 71.4214 190.842 64.9307 214.61L31.9964 214.908L31.5155 161.694L66.4733 81.0838L179.696 80.0607L180.761 197.968L180.902 213.563C180.902 213.563 180.902 213.563 180.902 213.563L173.642 213.628ZM145.1 229.399C145.169 243.529 133.801 255.069 119.657 255.196C105.478 255.324 93.8802 243.935 93.7521 229.755C93.6239 215.575 105.014 203.978 119.193 203.85C133.337 203.722 144.912 215.054 145.098 229.184C145.098 229.22 145.098 229.256 145.098 229.291C145.099 229.327 145.099 229.363 145.1 229.399ZM173.92 244.436C167.429 268.204 145.79 285.771 119.936 286.004C94.0817 286.238 72.1285 269.065 65.2092 245.418L29.194 245.744C13.88 245.882 1.35452 233.581 1.21615 218.267L0.701541 161.319C0.666483 157.441 1.44565 153.599 2.98707 150.042L2.98929 150.036L39.004 66.9892C43.3641 56.9351 53.2364 50.3929 64.193 50.2939L179.417 49.2526L179.111 15.3638C179.05 8.55785 184.517 2.99068 191.323 2.92918L466.542 0.44216L441.318 31.6713L210.279 33.7591L211.76 197.688L277.31 197.095C287.268 181.654 304.556 171.364 324.302 171.186C350.156 170.952 372.109 188.125 379.029 211.772L411.963 211.474L411.081 113.915C411.004 105.408 417.838 98.4491 426.346 98.3723C434.853 98.2954 441.812 105.13 441.889 113.637L442.799 214.277C442.937 229.591 430.635 242.116 415.322 242.255L379.307 242.58C372.816 266.348 351.176 283.915 325.323 284.149C294.129 284.431 268.613 259.372 268.331 228.178L212.04 228.686L196.445 228.827C196.445 228.827 196.445 228.827 196.445 228.827C196.522 237.335 189.688 244.294 181.18 244.371L173.92 244.436ZM324.58 201.994C338.759 201.866 350.358 213.256 350.486 227.435C350.614 241.615 339.223 253.213 325.044 253.341C310.865 253.469 299.267 242.079 299.139 227.899C299.011 213.72 310.401 202.122 324.58 201.994ZM446.421 46.8397C454.928 46.7629 461.887 53.5972 461.964 62.1046C462.041 70.612 455.206 77.5709 446.699 77.6478L364.544 78.3902C356.037 78.4671 349.078 71.6328 349.001 63.1254C348.924 54.6179 355.758 47.659 364.266 47.5821L446.421 46.8397Z" fill="#B92D2D"/>
</svg>
